<svg xmlns="http://www.w3.org/2000/svg" viewBox="0 0 400 240">
  <defs><linearGradient id="bg" x1="0" y1="0" x2="0" y2="1"><stop offset="0" stop-color="#7fc8ff"/><stop offset="1" stop-color="#fff4d6"/></linearGradient></defs>
  <rect width="400" height="240" fill="url(#bg)"/>
  <g fill="#fff" opacity=".6"><ellipse cx="60" cy="40" rx="40" ry="14"/><ellipse cx="345" cy="200" rx="46" ry="15"/></g>
  <g transform="rotate(-4 200 125)">
    <rect x="110" y="30" width="180" height="190" rx="16" fill="#fff"/>
    <rect x="122" y="42" width="156" height="166" rx="10" fill="#ffd9a8"/>
    <circle cx="200" cy="95" r="30" fill="#f2c39b"/>
    <path d="M168 90 q32 -50 64 0 q-4 -34 -32 -36 q-28 2 -32 36z" fill="#5a3b2a"/>
    <circle cx="190" cy="95" r="3.5" fill="#33305a"/><circle cx="210" cy="95" r="3.5" fill="#33305a"/>
    <path d="M190 108 q10 8 20 0" stroke="#c0504d" stroke-width="3" fill="none" stroke-linecap="round"/>
    <path d="M150 208 q0 -70 50 -75 q50 5 50 75z" fill="#ff6fb1"/>
  </g>
  <g transform="translate(212 118)">
    <g fill="#fff"><rect x="0" y="0" width="100" height="80" rx="22"/><circle cx="12" cy="12" r="16"/><circle cx="88" cy="12" r="16"/><circle cx="12" cy="68" r="16"/><circle cx="88" cy="68" r="16"/><circle cx="50" cy="-4" r="20"/><circle cx="50" cy="84" r="18"/><circle cx="-4" cy="40" r="16"/><circle cx="104" cy="40" r="16"/></g>
    <text x="50" y="58" text-anchor="middle" font-family="Arial Rounded MT Bold, Arial, sans-serif" font-weight="bold" font-size="52" fill="#7a6cf0">?</text>
  </g>
</svg>
